<?xml version="1.0" encoding="UTF-8" standalone="no"?>
<svg width="22px" height="19px" viewBox="0 0 22 19" version="1.1" xmlns="http://www.w3.org/2000/svg" xmlns:xlink="http://www.w3.org/1999/xlink">
    <!-- Generator: Sketch 40 (33762) - http://www.bohemiancoding.com/sketch -->
    <title>icon_cart</title>
    <desc>Created with Sketch.</desc>
    <defs></defs>
    <g id="Page-1" stroke="none" stroke-width="1" fill="none" fill-rule="evenodd">
        <g id="app_1-0_main_screen" transform="translate(-283.000000, -32.000000)" fill="#4A4A4A">
            <path d="M291.461538,48.9230769 C291.461538,49.3902267 291.296276,49.7890608 290.965745,50.1195913 C290.635215,50.4501218 290.236381,50.6153846 289.769231,50.6153846 C289.302081,50.6153846 288.903247,50.4501218 288.572716,50.1195913 C288.242186,49.7890608 288.076923,49.3902267 288.076923,48.9230769 C288.076923,48.4559272 288.242186,48.057093 288.572716,47.7265625 C288.903247,47.396032 289.302081,47.2307692 289.769231,47.2307692 C290.236381,47.2307692 290.635215,47.396032 290.965745,47.7265625 C291.296276,48.057093 291.461538,48.4559272 291.461538,48.9230769 L291.461538,48.9230769 Z M303.307692,48.9230769 C303.307692,49.3902267 303.14243,49.7890608 302.811899,50.1195913 C302.481369,50.4501218 302.082534,50.6153846 301.615385,50.6153846 C301.148235,50.6153846 300.749401,50.4501218 300.41887,50.1195913 C300.08834,49.7890608 299.923077,49.3902267 299.923077,48.9230769 C299.923077,48.4559272 300.08834,48.057093 300.41887,47.7265625 C300.749401,47.396032 301.148235,47.2307692 301.615385,47.2307692 C302.082534,47.2307692 302.481369,47.396032 302.811899,47.7265625 C303.14243,48.057093 303.307692,48.4559272 303.307692,48.9230769 L303.307692,48.9230769 Z M305,34.5384615 L305,41.3076923 C305,41.5192318 304.929488,41.7065296 304.788462,41.8695913 C304.647435,42.0326531 304.466748,42.1274037 304.246394,42.1538462 L290.44351,43.7668269 C290.452324,43.8285259 290.472155,43.9232766 290.503005,44.0510817 C290.533854,44.1788869 290.560296,44.2956725 290.582332,44.4014423 C290.604367,44.5072121 290.615385,44.6041662 290.615385,44.6923077 C290.615385,44.833334 290.509616,45.1153825 290.298077,45.5384615 L302.461538,45.5384615 C302.690706,45.5384615 302.889022,45.6221947 303.05649,45.7896635 C303.223959,45.9571322 303.307692,46.1554476 303.307692,46.3846154 C303.307692,46.6137832 303.223959,46.8120985 303.05649,46.9795673 C302.889022,47.1470361 302.690706,47.2307692 302.461538,47.2307692 L288.923077,47.2307692 C288.693909,47.2307692 288.495594,47.1470361 288.328125,46.9795673 C288.160656,46.8120985 288.076923,46.6137832 288.076923,46.3846154 C288.076923,46.2612173 288.1254,46.0871405 288.222356,45.8623798 C288.319311,45.6376191 288.449318,45.3754021 288.61238,45.0757212 C288.775442,44.7760402 288.865785,44.6085739 288.883413,44.5733173 L286.543269,33.6923077 L283.846154,33.6923077 C283.616986,33.6923077 283.418671,33.6085746 283.251202,33.4411058 C283.083733,33.273637 283,33.0753217 283,32.8461538 C283,32.616986 283.083733,32.4186707 283.251202,32.2512019 C283.418671,32.0837331 283.616986,32 283.846154,32 L287.230769,32 C287.371796,32 287.497395,32.0286455 287.607572,32.0859375 C287.717749,32.1432295 287.805889,32.2115381 287.871995,32.2908654 C287.938101,32.3701927 287.995392,32.4781644 288.04387,32.6147837 C288.092348,32.7514029 288.125401,32.8681886 288.143029,32.9651442 C288.160657,33.0620998 288.184896,33.1921066 288.215745,33.3551683 C288.246595,33.51823 288.266426,33.6306087 288.27524,33.6923077 L304.153846,33.6923077 C304.383014,33.6923077 304.581329,33.7760408 304.748798,33.9435096 C304.916267,34.1109784 305,34.3092937 305,34.5384615 L305,34.5384615 Z" id="icon_cart"></path>
        </g>
    </g>
</svg>