<?xml version="1.0" encoding="UTF-8" standalone="no"?>
<svg width="22px" height="21px" viewBox="0 0 22 21" version="1.1" xmlns="http://www.w3.org/2000/svg" xmlns:xlink="http://www.w3.org/1999/xlink">
    <!-- Generator: Sketch 40 (33762) - http://www.bohemiancoding.com/sketch -->
    <title>icon_filter</title>
    <desc>Created with Sketch.</desc>
    <defs></defs>
    <g id="Page-1" stroke="none" stroke-width="1" fill="none" fill-rule="evenodd">
        <g id="app_4-0_shops" transform="translate(-283.000000, -32.000000)" fill="#4A4A4A">
            <path d="M288.041667,48.5 L288.041667,50.3333333 L283,50.3333333 L283,48.5 L288.041667,48.5 Z M293.083333,46.6666667 C293.331598,46.6666667 293.54644,46.7573776 293.727865,46.9388021 C293.909289,47.1202266 294,47.3350682 294,47.5833333 L294,51.25 C294,51.4982651 293.909289,51.7131067 293.727865,51.8945312 C293.54644,52.0759558 293.331598,52.1666667 293.083333,52.1666667 L289.416667,52.1666667 C289.168402,52.1666667 288.95356,52.0759558 288.772135,51.8945312 C288.590711,51.7131067 288.5,51.4982651 288.5,51.25 L288.5,47.5833333 C288.5,47.3350682 288.590711,47.1202266 288.772135,46.9388021 C288.95356,46.7573776 289.168402,46.6666667 289.416667,46.6666667 L293.083333,46.6666667 Z M295.375,41.1666667 L295.375,43 L283,43 L283,41.1666667 L295.375,41.1666667 Z M286.208333,33.8333333 L286.208333,35.6666667 L283,35.6666667 L283,33.8333333 L286.208333,33.8333333 Z M305,48.5 L305,50.3333333 L294.458333,50.3333333 L294.458333,48.5 L305,48.5 Z M291.25,32 C291.498265,32 291.713107,32.0907109 291.894531,32.2721354 C292.075956,32.4535599 292.166667,32.6684015 292.166667,32.9166667 L292.166667,36.5833333 C292.166667,36.8315985 292.075956,37.0464401 291.894531,37.2278646 C291.713107,37.4092891 291.498265,37.5 291.25,37.5 L287.583333,37.5 C287.335068,37.5 287.120227,37.4092891 286.938802,37.2278646 C286.757378,37.0464401 286.666667,36.8315985 286.666667,36.5833333 L286.666667,32.9166667 C286.666667,32.6684015 286.757378,32.4535599 286.938802,32.2721354 C287.120227,32.0907109 287.335068,32 287.583333,32 L291.25,32 Z M300.416667,39.3333333 C300.664932,39.3333333 300.879773,39.4240442 301.061198,39.6054687 C301.242622,39.7868933 301.333333,40.0017349 301.333333,40.25 L301.333333,43.9166667 C301.333333,44.1649318 301.242622,44.3797734 301.061198,44.5611979 C300.879773,44.7426224 300.664932,44.8333333 300.416667,44.8333333 L296.75,44.8333333 C296.501735,44.8333333 296.286893,44.7426224 296.105469,44.5611979 C295.924044,44.3797734 295.833333,44.1649318 295.833333,43.9166667 L295.833333,40.25 C295.833333,40.0017349 295.924044,39.7868933 296.105469,39.6054687 C296.286893,39.4240442 296.501735,39.3333333 296.75,39.3333333 L300.416667,39.3333333 Z M305,41.1666667 L305,43 L301.791667,43 L301.791667,41.1666667 L305,41.1666667 Z M305,33.8333333 L305,35.6666667 L292.625,35.6666667 L292.625,33.8333333 L305,33.8333333 Z" id="icon_filter"></path>
        </g>
    </g>
</svg>