<?xml version="1.0" encoding="UTF-8" standalone="no"?>
<svg width="22px" height="22px" viewBox="0 0 22 22" version="1.1" xmlns="http://www.w3.org/2000/svg" xmlns:xlink="http://www.w3.org/1999/xlink">
    <!-- Generator: Sketch 40 (33762) - http://www.bohemiancoding.com/sketch -->
    <title>icon_user</title>
    <desc>Created with Sketch.</desc>
    <defs></defs>
    <g id="Page-1" stroke="none" stroke-width="1" fill="none" fill-rule="evenodd">
        <g id="app_1-1_menu" transform="translate(-15.000000, -30.000000)" fill="#FFFFFF">
            <path d="M26.077352,51.155244 C22.311832,51.155244 19.637512,48.848764 19.599672,48.810924 C20.209072,48.454964 22.710472,47.968764 23.296112,47.600044 C23.944232,47.192164 23.736112,44.960044 23.736112,44.960044 L23.296112,44.575044 C23.296112,44.575044 23.207232,43.552924 22.993392,43.200044 C22.627312,42.596364 22.113392,41.000044 22.113392,41.000044 C22.113392,41.000044 21.673832,40.679724 21.673832,40.120044 C21.673832,39.559924 22.113392,39.240044 22.113392,39.240044 C22.113392,39.240044 21.769752,37.682444 21.769752,36.600044 C21.769752,34.139124 23.641512,33.080044 26.206272,33.080044 C28.771032,33.080044 30.198392,34.326124 30.198392,36.600044 C30.198392,37.682444 30.033392,39.240044 30.033392,39.240044 C30.033392,39.240044 30.473392,39.559924 30.473392,40.120044 C30.473392,40.679724 30.033392,41.000044 30.033392,41.000044 C30.033392,41.000044 29.581512,42.379444 29.153392,43.200044 C28.962872,43.566124 28.851112,44.575044 28.851112,44.575044 L28.411112,44.960044 C28.411112,44.960044 28.202552,47.192164 28.851112,47.600044 C29.428832,47.963924 31.873472,48.442644 32.522912,48.796844 C32.522912,48.839964 29.842432,51.155244 26.077352,51.155244 M25.999912,30.000044 C19.924832,30.000044 14.999912,34.924964 14.999912,41.000044 C14.999912,47.075564 19.924832,52.000044 25.999912,52.000044 C32.074992,52.000044 36.999912,47.075564 36.999912,41.000044 C36.999912,34.924964 32.074992,30.000044 25.999912,30.000044" id="icon_user"></path>
        </g>
    </g>
</svg>