<?xml version="1.0" encoding="UTF-8" standalone="no"?>
<svg width="12px" height="21px" viewBox="0 0 12 21" version="1.1" xmlns="http://www.w3.org/2000/svg" xmlns:xlink="http://www.w3.org/1999/xlink">
    <!-- Generator: Sketch 40 (33762) - http://www.bohemiancoding.com/sketch -->
    <title>icon_arrow</title>
    <desc>Created with Sketch.</desc>
    <defs></defs>
    <g id="Page-1" stroke="none" stroke-width="1" fill="none" fill-rule="evenodd" opacity="0.300000012">
        <g id="app_1-2_anketa" transform="translate(-293.000000, -238.000000)" fill="#9B9B9B">
            <path d="M308.848214,245.129464 L299.486607,254.491071 C299.352678,254.625001 299.198662,254.691964 299.024554,254.691964 C298.850446,254.691964 298.696429,254.625001 298.5625,254.491071 L289.200893,245.129464 C289.066964,244.995535 289,244.841519 289,244.667411 C289,244.493303 289.066964,244.339286 289.200893,244.205357 L290.205357,243.200893 C290.339286,243.066964 290.493303,243 290.667411,243 C290.841519,243 290.995535,243.066964 291.129464,243.200893 L299.024554,251.095982 L306.919643,243.200893 C307.053572,243.066964 307.207588,243 307.381696,243 C307.555804,243 307.709821,243.066964 307.84375,243.200893 L308.848214,244.205357 C308.982144,244.339286 309.049107,244.493303 309.049107,244.667411 C309.049107,244.841519 308.982144,244.995535 308.848214,245.129464 Z" id="icon_arrow" transform="translate(299.024554, 248.845982) rotate(-90.000000) translate(-299.024554, -248.845982) "></path>
        </g>
    </g>
</svg>